HIERARCHY
ROOT Hips
{
  OFFSET 3.13124 94.3669 -3.18751
  CHANNELS  6 Xposition Yposition Zposition Zrotation Xrotation Yrotation
  JOINT LeftUpLeg
  {
    OFFSET 8.64259 1.95398 -2.38835
    CHANNELS 3 Zrotation Xrotation Yrotation
    JOINT LeftLeg
    {
      OFFSET 43.7702 0 0
      CHANNELS 3 Zrotation Xrotation Yrotation
      JOINT LeftFoot
      {
        OFFSET 40.6238 0 0
        CHANNELS 3 Zrotation Xrotation Yrotation
        JOINT LeftToeBase
        {
          OFFSET 12.7242 0 0
          CHANNELS 3 Zrotation Xrotation Yrotation
          End Site
          {
            OFFSET 0 0 0
          }
        }
      }
    }
  }
  JOINT RightUpLeg
  {
    OFFSET -8.2249 1.95398 -2.59336
    CHANNELS 3 Zrotation Xrotation Yrotation
    JOINT RightLeg
    {
      OFFSET 43.5653 0 0
      CHANNELS 3 Zrotation Xrotation Yrotation
      JOINT RightFoot
      {
        OFFSET 40.6238 0 0
        CHANNELS 3 Zrotation Xrotation Yrotation
        JOINT RightToeBase
        {
          OFFSET 12.7242 0 0
          CHANNELS 3 Zrotation Xrotation Yrotation
          End Site
          {
            OFFSET 0 0 0
          }
        }
      }
    }
  }
  JOINT Spine
  {
    OFFSET 0.165834 0.87714 6.61349
    CHANNELS 3 Zrotation Xrotation Yrotation
    JOINT Spine1
    {
      OFFSET 7.38962 1.71661e-005 0
      CHANNELS 3 Zrotation Xrotation Yrotation
      JOINT Spine2
      {
        OFFSET 11.9445 1.14441e-005 0
        CHANNELS 3 Zrotation Xrotation Yrotation
        JOINT Spine3
        {
          OFFSET 14.7254 4.19617e-005 0
          CHANNELS 3 Zrotation Xrotation Yrotation
          JOINT Spine4
          {
            OFFSET 10.9679 0 0
            CHANNELS 3 Zrotation Xrotation Yrotation
            JOINT RightShoulder
            {
              OFFSET 2.46616 -1.6653 3.69651
              CHANNELS 3 Zrotation Xrotation Yrotation
              JOINT RightArm
              {
                OFFSET 13.0012 0 0
                CHANNELS 3 Zrotation Xrotation Yrotation
                JOINT RightForeArm
                {
                  OFFSET 28.7848 1.52588e-005 0
                  CHANNELS 3 Zrotation Xrotation Yrotation
                  JOINT RightHand
                  {
                    OFFSET 26.5688 1.52588e-005 0
                    CHANNELS 3 Zrotation Xrotation Yrotation
                    End Site
                    {
                      OFFSET 0 0 0
                    }
                  }
                }
              }
            }
            JOINT LeftShoulder
            {
              OFFSET 2.38034 -1.29275 -3.75231
              CHANNELS 3 Zrotation Xrotation Yrotation
              JOINT LeftArm
              {
                OFFSET 16.3182 6.10352e-005 0
                CHANNELS 3 Zrotation Xrotation Yrotation
                JOINT LeftForeArm
                {
                  OFFSET 27.0901 0 0
                  CHANNELS 3 Zrotation Xrotation Yrotation
                  JOINT LeftHand
                  {
                    OFFSET 24.5451 1.52588e-005 0
                    CHANNELS 3 Zrotation Xrotation Yrotation
                    End Site
                    {
                      OFFSET 0 0 0
                    }
                  }
                }
              }
            }
            JOINT Neck
            {
              OFFSET 5.0226 -0.0266342 0
              CHANNELS 3 Zrotation Xrotation Yrotation
              JOINT Head
              {
                OFFSET 6.69363 2.86102e-005 0
                CHANNELS 3 Zrotation Xrotation Yrotation
                End Site
                {
                  OFFSET 0 0 0
                }
              }
            }
          }
        }
      }
    }
  }
}
MOTION
Frames:	13
Frame Time:	0.0333333
21.7249 97.6649 1.22064 84.8921 -22.6189 93.1241 -168.165 9.33569 100.149 -13.9131 12.6418 3.78336 63.5387 1.70815 0.901414 28.7808 3.85081e-006 3.71953e-006 179.544 24.9621 87.2425 -26.5156 17.6511 0.966682 51.9659 3.72608 3.03495 28.7808 1.45319e-005 3.28444e-005 0.257173 7.705 -89.7884 11.4624 0.664061 0.463463 -0.208405 0.68382 0.43378 -22.7437 0.4941 0.641623 -2.7311 0.494081 0.641609 98.5455 -10.4269 -92.9745 -12.1663 -44.7252 -71.6873 -12.0906 7.55112 -89.6226 -5.37983 -0.320007 -0.0162409 -84.2617 -30.0086 84.3767 11.894 24.9212 -66.1935 -26.726 0.43269 -94.4652 2.87044 -1.55302 -35.5607 -10.7211 -6.00602 -1.9874 -21.6371 -4.47078 -8.79407 
22.4067 97.4936 3.07276 85.4403 -23.3455 92.5613 -167.913 7.91522 100.57 -13.9522 11.8667 3.81838 63.6834 0.567867 0.259177 28.7808 3.85081e-006 3.71953e-006 179.545 21.8756 88.2271 -23.4377 19.1819 1.11134 55.2695 0.770813 0.791206 28.7808 1.45319e-005 3.28444e-005 0.216009 7.66811 -89.8769 11.5353 0.541882 0.503499 -0.13556 0.563596 0.479149 -22.6704 0.365553 0.643081 -2.65777 0.365527 0.643078 99.393 -9.70645 -90.6123 -17.0471 -44.0616 -74.1632 -13.2124 8.6625 -89.8522 -5.37983 -0.320007 -0.0162409 -84.6347 -29.7243 83.5914 10.877 24.6405 -64.3607 -24.4802 0.595395 -95.4272 6.38441 -2.42418 -34.1491 -11.4577 -5.75744 -0.874689 -20.739 -4.63275 -7.09168 
23.0725 97.4349 4.89476 85.5487 -24.5809 91.9057 -167.664 6.98698 101.021 -14.2618 10.6137 3.70429 63.256 -0.697083 -0.480784 28.7808 3.85081e-006 3.71953e-006 179.647 19.5738 89.0162 -20.6652 19.3896 1.14649 57.4015 -1.58281 -0.808145 28.7808 1.45319e-005 3.28444e-005 0.0877735 7.58911 -89.917 11.6948 0.270505 0.450849 0.0237869 0.290064 0.438504 -22.5108 0.122498 0.511301 -2.49815 0.12251 0.511301 100.027 -8.42717 -88.9129 -19.8989 -42.9914 -75.6234 -13.9655 9.41063 -89.7452 -5.37983 -0.320007 -0.0162409 -84.3476 -29.8761 84.182 11.0133 24.3879 -62.0479 -24.4542 0.688849 -97.242 7.29191 -2.5581 -32.9534 -11.6168 -5.01762 1.52172 -20.4801 -4.11811 -6.32635 
23.6854 97.5648 6.69299 85.5323 -26.4678 90.8967 -167.488 6.34809 101.237 -15.2021 9.21676 3.4878 61.836 -2.46856 -1.59706 28.7808 3.85081e-006 3.71953e-006 179.735 18.9213 89.3363 -20.5977 17.9776 1.04183 58.9085 -2.89488 -1.64108 28.7808 1.45319e-005 3.28444e-005 -0.0531732 7.50763 -89.8011 11.8589 0.0322157 0.415061 0.187842 0.0504376 0.413235 -22.3468 -0.0940225 0.405552 -2.33415 -0.0940365 0.405541 100.588 -6.98022 -87.3653 -23.1372 -41.8756 -76.911 -15.1305 10.4574 -90.2725 -5.37983 -0.320007 -0.0162409 -83.5005 -29.9325 85.8464 11.292 24.2092 -59.6112 -22.5848 0.200399 -98.8277 7.75004 -2.47308 -30.8011 -12.5353 -4.03343 3.50322 -19.3386 -3.3815 -5.38644 
24.2426 98.1105 8.45131 85.5333 -28.5093 90.0636 -167.252 6.1694 101.6 -16.7044 8.3802 3.31363 58.8297 -4.34017 -2.96597 28.7808 3.85081e-006 3.71953e-006 179.819 16.7016 89.608 -17.4824 15.9055 0.92138 58.6295 -3.69569 -2.14487 28.7808 1.45319e-005 3.28444e-005 -0.156669 7.46948 -89.7708 11.935 -0.195201 0.317302 0.264043 -0.181054 0.325589 -22.271 -0.281568 0.243962 -2.25836 -0.281543 0.243968 101.115 -5.91968 -85.7646 -24.8662 -40.5901 -76.2226 -16.2534 11.3451 -90.9211 -5.37983 -0.320007 -0.0162409 -82.5166 -30.1604 87.8039 12.8069 23.4247 -56.9156 -21.7503 0.0156538 -100.675 9.03292 -2.63098 -29.411 -13.2426 -3.13692 4.7576 -19.1808 -2.62554 -4.50026 
24.7848 98.6383 10.1809 85.3383 -29.8893 88.7199 -167.435 6.73628 101.451 -19.0853 9.21776 3.63584 55.3346 -6.09643 -4.45739 28.7808 3.85081e-006 3.71953e-006 179.734 14.9706 89.4099 -15.136 14.1582 0.819419 58.3615 -4.75307 -2.81916 28.7808 1.45319e-005 3.28444e-005 -0.329701 7.45029 -89.7827 11.9733 -0.57454 0.348991 0.302444 -0.558621 0.373933 -22.2336 -0.652872 0.160174 -2.22098 -0.652863 0.160181 101.57 -5.00061 -84.3082 -26.8353 -39.8876 -75.2369 -17.6821 12.559 -91.6654 -5.37983 -0.320007 -0.0162409 -81.7235 -30.0297 89.3375 14.5863 23.0353 -53.0792 -19.7125 -0.520297 -103.021 10.8879 -2.91372 -28.3037 -14.1888 -2.21217 5.53846 -18.6846 -1.80378 -3.67381 
25.3152 99.0832 11.923 85.2785 -30.8056 87.3061 -167.73 7.83368 101.028 -22.3326 11.9033 4.5317 51.9877 -6.28553 -4.99701 28.7808 3.85081e-006 3.71953e-006 179.604 12.1834 89.0781 -11.0191 13.0504 0.764358 57.7596 -6.21888 -3.77767 28.7808 1.45319e-005 3.28444e-005 -0.469247 7.4383 -89.7008 11.9966 -0.856664 0.432625 0.325822 -0.836767 0.469904 -22.2115 -0.947081 0.15514 -2.19884 -0.947053 0.155147 102.043 -4.28266 -82.706 -27.586 -39.7842 -72.8806 -18.9131 13.8081 -92.2417 -5.37983 -0.320007 -0.0162409 -81.3776 -29.1648 89.9204 16.4476 22.5333 -49.8002 -19.7322 -0.386959 -104.809 12.1508 -3.22609 -28.6171 -16.0056 -1.65601 5.11199 -17.3035 -1.2809 -3.05136 
25.9311 99.349 13.4942 85.5972 -32.054 86.3205 -167.788 8.23079 100.717 -24.8329 14.8609 5.43848 49.9479 -6.20426 -5.20259 28.7808 3.85081e-006 3.71953e-006 179.473 10.6456 88.7775 -10.1163 11.7167 0.682793 58.226 -6.89304 -4.18429 28.7808 1.45319e-005 3.28444e-005 -0.560813 7.3863 -89.5741 12.099 -1.01422 0.533717 0.428358 -0.989745 0.57783 -22.1098 -1.12773 0.204192 -2.09715 -1.12772 0.2042 102.585 -3.58637 -80.793 -28.8653 -40.1867 -71.9154 -20.1807 15.1194 -92.5383 -5.37983 -0.320007 -0.0162409 -80.6708 -27.336 91.1507 18.3735 23.0224 -47.2871 -20.5697 -0.242626 -106.657 12.6788 -3.43273 -29.2715 -17.3811 -1.03734 4.40538 -17.1451 -0.631077 -2.8411 
26.6131 99.5496 14.899 85.9489 -33.7617 85.7057 -167.648 7.74396 100.786 -24.8308 16.7683 6.01283 49.0057 -7.24079 -6.10629 28.7808 3.85081e-006 3.71953e-006 179.366 9.2526 88.6206 -9.54029 9.85606 0.568248 58.7 -7.15597 -4.32189 28.7808 1.45319e-005 3.28444e-005 -0.559201 7.32806 -89.5405 12.2151 -1.00523 0.544627 0.54445 -0.980293 0.58834 -21.9936 -1.12243 0.217306 -1.98098 -1.12246 0.217297 103.051 -3.09387 -79.0938 -30.5578 -40.3585 -70.6156 -21.8494 16.8744 -92.8678 -5.37983 -0.320007 -0.0162409 -80.3416 -24.9376 91.6082 19.738 24.0803 -44.34 -18.8938 -0.916749 -108.219 14.821 -4.09793 -30.4343 -18.983 -0.591417 3.3353 -16.5454 -0.248478 -2.12419 
27.2944 99.7929 16.1051 85.7069 -35.3065 84.9825 -167.661 7.11341 100.864 -21.6202 15.9522 5.54741 48.6759 -8.31334 -6.94128 28.7808 3.85081e-006 3.71953e-006 179.173 6.59862 88.536 -5.20156 7.99305 0.458038 57.1317 -7.47249 -4.61572 28.7808 1.45319e-005 3.28444e-005 -0.579616 7.25984 -89.6969 12.3541 -1.06938 0.499948 0.683466 -1.04633 0.54653 -21.8551 -1.17018 0.155408 -1.84244 -1.17018 0.155402 103.494 -2.74429 -77.4466 -31.5577 -39.9928 -68.9331 -23.0416 18.2163 -93.3834 -5.37983 -0.320007 -0.0162409 -79.8619 -23.3115 92.4966 21.796 25.1915 -41.8628 -18.8432 -1.14574 -110.152 15.2616 -4.39265 -31.6014 -19.9183 -0.0547823 2.54902 -15.7042 0.200188 -1.42072 
28.0409 100.021 17.1476 85.8561 -36.403 84.0244 -168.299 7.59279 100.079 -20.0093 12.9101 4.65451 47.5666 -6.49692 -5.73485 28.7808 3.85081e-006 3.71953e-006 178.858 5.66299 87.9026 -5.0261 6.89315 0.393825 57.4393 -8.31535 -5.14603 28.7808 1.45319e-005 3.28444e-005 -0.687335 7.23261 -89.6051 12.4069 -1.26165 0.532797 0.736466 -1.23695 0.587804 -21.8035 -1.36343 0.128925 -1.79086 -1.36344 0.12892 103.699 -2.52327 -76.6689 -31.9251 -40.0148 -66.7768 -23.9542 19.3715 -93.7463 -5.37983 -0.320007 -0.0162409 -79.4332 -21.8566 93.3319 23.5937 26.6957 -38.9058 -18.4478 -1.8646 -111.864 13.1817 -4.01404 -32.5285 -20.4503 0.565152 1.8285 -15.3215 0.726015 -0.668042 
28.4468 100.069 18.2921 84.7417 -37.7854 82.8982 -168.792 9.69897 99.7688 -19.0605 13.2879 4.92297 45.7481 -7.10185 -6.48891 28.7808 3.85081e-006 3.71953e-006 178.922 5.49827 87.9588 -4.14472 5.54834 0.318399 57.6415 -8.06312 -4.97393 28.7808 1.45319e-005 3.28444e-005 -0.742915 7.13956 -89.5522 12.5898 -1.35259 0.418222 0.919458 -1.3329 0.47735 -21.6213 -1.41575 -0.00770548 -1.6087 -1.41575 -0.00771382 103.982 -2.47198 -75.6184 -32.6089 -39.539 -64.7948 -24.8325 20.3596 -94.1364 -5.37983 -0.320007 -0.0162409 -78.7801 -21.0617 94.7546 26.295 28.5378 -36.6123 -20.6326 -1.09378 -113.23 11.9263 -3.75527 -32.9803 -20.401 1.13746 1.58021 -14.9846 1.29044 -0.597297 
28.9951 100.043 19.1657 84.7697 -38.963 82.1789 -169.213 10.6212 99.1444 -17.5584 13.1869 4.73093 44.4184 -8.938 -8.18318 28.7808 3.85081e-006 3.71953e-006 178.717 4.7592 87.6002 -3.96118 4.4582 0.255911 58.4157 -8.94948 -5.4871 28.7808 1.45319e-005 3.28444e-005 -0.785561 7.15185 -89.509 12.5645 -1.40064 0.43973 0.894234 -1.37993 0.500952 -21.647 -1.46804 -0.00164546 -1.63432 -1.46801 -0.00164134 104.361 -2.71385 -74.2834 -33.57 -39.6179 -62.8076 -26.0017 21.5116 -94.4926 -5.37983 -0.320007 -0.0162409 -78.2216 -20.0472 95.9938 27.7399 29.7496 -33.8345 -19.5153 -2.11642 -114.689 10.1798 -3.0303 -30.5656 -20.4361 1.62846 1.09602 -14.3484 1.78117 -0.699628 
